<?xml version="1.0" encoding="utf-8"?>
<!-- Generator: Adobe Illustrator 25.2.3, SVG Export Plug-In . SVG Version: 6.00 Build 0)  -->
<svg version="1.1" id="Layer_1" xmlns="http://www.w3.org/2000/svg" xmlns:xlink="http://www.w3.org/1999/xlink" x="0px" y="0px"
	 viewBox="0 0 2199.47 841.89" style="enable-background:new 0 0 2199.47 841.89;" xml:space="preserve">
<style type="text/css">
	.st0{fill:#FFFFFF;}
	.st1{fill:#ED1164;}
	.st2{fill:#EF4136;stroke:#FFFFFF;stroke-width:10.8981;}
	.st3{fill:#71A850;stroke:#EC008C;stroke-width:5.449;}
</style>
<g>
	<path class="st0" d="M668.09,277.06c-0.58,1.93-7.02,16.8-7.5,18.15c-0.48,1.35-0.05,2.36,1.3,3.03c1.34,0.68,3.94,1.15,7.79,1.44
		c3.85,0.29,9.81,0.43,17.89,0.43h46.47l11.54,41.02l11.26-41.02h46.76c7.89,0,13.8-0.14,17.75-0.43c3.94-0.29,6.59-0.82,7.94-1.59
		c1.34-0.77,1.83-1.78,1.44-3.03c-0.39-1.25-5.54-16.69-6.5-18.62c0.19,0,0.82-0.05,1.88-0.14c1.06-0.09,1.88-0.24,2.45-0.43
		c0.77,1.73,5.92,17.32,6.5,19.05c0.58,1.73,1.25,3.46,2.02,5.2h1.73v5.19l6.06,17.32c-0.19,0-0.87-0.05-2.02-0.14
		c-1.15-0.09-2.02-0.24-2.6-0.43c-0.77-3.08-1.59-5.67-2.45-7.79c-0.87-2.12-2.41-3.8-4.62-5.05c-2.21-1.25-5.44-2.11-9.67-2.6
		c-4.23-0.48-50-0.72-57.69-0.72l-8.86,35.25l-0.12,147.44c0,4.43,0.23,7.84,0.7,10.25c0.47,2.41,1.27,4.14,2.4,5.2
		c1.13,1.06,2.59,1.64,4.38,1.73c1.79,0.1,3.91,0.14,6.36,0.14h2.02c0.19,0.19,0.38,0.87,0.58,2.02c0.19,1.15,0.38,1.93,0.58,2.31
		h-56.86c0-0.96,0.09-1.73,0.29-2.31c0.19-0.58,0.38-1.25,0.58-2.02h2.02c2.69,0,4.91-0.05,6.64-0.14c1.73-0.09,3.17-0.67,4.33-1.73
		c1.15-1.06,1.97-2.79,2.45-5.2c0.48-2.4,0.72-5.82,0.72-10.25l-0.1-147.19l-8.35-35.5c-8.08,0-54.47,0.29-58.51,0.87
		c-4.04,0.58-7.07,1.49-9.09,2.74c-2.02,1.25-3.42,2.94-4.18,5.05c-0.77,2.12-1.83,4.62-3.18,7.5c-0.19,0-0.87,0.05-2.02,0.14
		c-1.15,0.1-2.02,0.24-2.6,0.43c0.96-2.89,1.97-5.72,3.03-8.51c1.05-2.79,2.06-5.53,3.03-8.23v-5.77h2.02
		c0.77-1.73,1.44-3.46,2.02-5.2c0.58-1.73,7.07-16.7,7.64-18.44c0.19,0,0.82,0.05,1.88,0.14
		C666.69,276.73,667.51,276.87,668.09,277.06z"/>
</g>
<path class="st0" d="M748.43,216.95c-12.76,7.57-20.7,22.1-20.72,37.89c0,15.78,7.92,30.3,20.65,37.89
	c12.76-7.57,20.7-22.1,20.72-37.89C769.08,239.07,761.16,224.54,748.43,216.95L748.43,216.95z"/>
<path class="st1" d="M805.58,179.05c-11.24,3.15-20.23,12.57-23.46,24.58c-3.21,11.99-0.16,24.64,7.97,33
	c11.23-3.15,20.23-12.57,23.46-24.58C816.77,200.06,813.71,187.41,805.58,179.05L805.58,179.05z"/>
<path class="st0" d="M748.43,132.43c-10.81,6.41-17.53,18.71-17.55,32.09c0,13.36,6.7,25.66,17.48,32.09
	c10.8-6.41,17.53-18.71,17.55-32.09C765.91,151.16,759.21,138.86,748.43,132.43L748.43,132.43z"/>
<path class="st1" d="M865.2,238.36c-8.44-3.95-18.79-2.94-27,2.63c-8.19,5.58-12.94,14.82-12.38,24.11c8.44,3.95,18.79,2.94,27-2.63
	C861.01,256.9,865.76,247.65,865.2,238.36L865.2,238.36z"/>
<path class="st1" d="M629.51,238.36c8.44-3.95,18.79-2.94,27,2.63c8.19,5.58,12.94,14.82,12.38,24.11c-8.44,3.95-18.79,2.94-27-2.63
	C633.7,256.9,628.95,247.65,629.51,238.36L629.51,238.36z"/>
<path class="st0" d="M874.13,192.04c-9.72-4.43-21.57-3.15-30.91,3.34c-9.32,6.49-14.65,17.14-13.9,27.78
	c9.72,4.43,21.57,3.15,30.91-3.34C869.55,213.33,874.88,202.68,874.13,192.04L874.13,192.04z"/>
<path class="st0" d="M621.28,192.04c9.72-4.43,21.57-3.15,30.91,3.34c9.32,6.49,14.65,17.14,13.9,27.78
	c-9.72,4.43-21.57,3.15-30.91-3.34C625.86,213.33,620.53,202.68,621.28,192.04L621.28,192.04z"/>
<path class="st1" d="M849.15,146.3c-8.87-0.67-17.78,3.73-23.22,11.49c-5.43,7.75-6.54,17.61-2.89,25.72
	c8.87,0.67,17.78-3.73,23.22-11.49C851.68,164.27,852.79,154.41,849.15,146.3L849.15,146.3z"/>
<path class="st1" d="M647.97,146.3c8.87-0.67,17.78,3.73,23.22,11.49c5.43,7.75,6.54,17.61,2.89,25.72
	c-8.87,0.67-17.78-3.73-23.22-11.49C645.44,164.27,644.33,154.41,647.97,146.3L647.97,146.3z"/>
<path class="st1" d="M694.59,179.05c-8.78,8.99-12.09,22.61-8.64,35.54c3.46,12.91,13.12,23.05,25.19,26.47
	c8.78-8.98,12.09-22.61,8.64-35.54C716.32,192.62,706.66,182.47,694.59,179.05L694.59,179.05z"/>
<path class="st0" d="M748.42,63.98c-8.19,4.86-13.29,14.18-13.3,24.32c0,10.13,5.08,19.45,13.25,24.32
	c8.19-4.86,13.29-14.18,13.3-24.32C761.67,78.18,756.59,68.85,748.42,63.98L748.42,63.98z"/>
<path class="st1" d="M800.25,104.28c-9.17,2.57-16.51,10.26-19.14,20.05c-2.62,9.78-0.13,20.1,6.5,26.92
	c9.17-2.57,16.51-10.26,19.14-20.05C809.38,121.42,806.88,111.1,800.25,104.28L800.25,104.28z"/>
<path class="st1" d="M696.54,104.28c9.17,2.57,16.51,10.26,19.14,20.05c2.62,9.78,0.13,20.1-6.5,26.92
	c-9.17-2.57-16.51-10.26-19.14-20.05C687.41,121.42,689.91,111.1,696.54,104.28L696.54,104.28z"/>
<path class="st2" d="M892.73,386.42"/>
<path class="st2" d="M601.29,386.42"/>
<path class="st0" d="M252.71,306.88l-23.32-5.54c-0.97-0.39-1.94-0.68-2.91-0.87c-0.97-0.19-1.94-0.39-2.91-0.58
	c-0.2-0.19-0.49-0.29-0.87-0.29c-1.94-0.19-3.79-0.34-5.54-0.44c-1.75-0.1-3.69-0.15-5.83-0.15c-12.24,0-20.84,3.21-25.79,9.62
	c-4.95,6.41-7.43,17.68-7.43,33.81c0,5.44,0.73,10.35,2.19,14.72c1.46,4.37,4.13,8.55,8.01,12.53c3.88,3.98,9.18,7.97,15.88,11.95
	c6.7,3.98,15.3,8.21,25.79,12.68c10.68,4.47,19.43,8.89,26.23,13.26c6.8,4.37,12.19,9.04,16.18,13.99
	c3.98,4.95,6.7,10.45,8.16,16.47c1.46,6.02,2.19,12.92,2.19,20.69c0,10.3-1.07,19.04-3.21,26.23c-2.14,7.19-5.54,13.02-10.2,17.49
	c-4.66,4.47-10.78,7.68-18.36,9.62c-7.58,1.94-16.81,2.91-27.69,2.91c-9.52,0-17.88-0.92-25.06-2.77c-7.19-1.84-13.6-5-19.24-9.47
	c-7-5.25-11.95-9.04-14.86-11.37c-2.91-2.33-4.37-3.69-4.37-4.08c-0.58,1.75-0.93,2.96-1.02,3.64c-0.1,0.68-0.2,1.17-0.29,1.46
	c-0.1,0.29-0.39,0.54-0.87,0.73c-0.49,0.2-1.31,0.58-2.48,1.17v-23.9v-16.9h0.29c0.58,0.2,1.55,0.39,2.91,0.58l0.29,0.87
	c0.39,0.78,0.77,1.65,1.17,2.62c4.47,10.49,9.47,20.16,15.01,29c5.54,8.84,11.02,15.01,16.47,18.51c8.35,5.06,19.04,7.58,32.06,7.58
	c15.16,0,25.84-3.54,32.06-10.64c6.22-7.09,9.33-19.38,9.33-36.87c0-4.85-0.68-9.28-2.04-13.26c-1.36-3.98-3.84-7.82-7.43-11.51
	c-3.6-3.69-8.55-7.33-14.86-10.93c-6.32-3.59-14.33-7.43-24.04-11.51c-11.27-4.85-20.55-9.57-27.83-14.14
	c-7.29-4.56-13.02-9.42-17.2-14.57c-4.18-5.15-7.04-10.83-8.6-17.05c-1.56-6.22-2.33-13.21-2.33-20.98c0-9.91,0.87-18.31,2.62-25.21
	c1.75-6.89,4.66-12.48,8.74-16.76c4.08-4.27,9.37-7.38,15.88-9.33c6.51-1.94,14.43-2.91,23.75-2.91c9.33,0,17.29,0.78,23.9,2.33
	C241.82,300.86,247.65,303.38,252.71,306.88z M223.56,299.88c9.91,3.5,17.68,6.37,23.32,8.6c5.63,2.24,9.91,3.93,12.82,5.1
	c3.5,1.36,5.73,2.43,6.7,3.21c0.97-2.52,1.36-3.83,1.17-3.93c-0.2-0.1,0.39-0.44,1.75-1.02c0.58-0.19,0.97-0.29,1.17-0.29h0.29
	v18.65v17.2c-1.36-0.39-1.99-0.58-1.89-0.58c0.1,0-0.25-0.1-1.02-0.29c0-0.19-0.1-0.48-0.29-0.87c-0.39-0.58-0.78-1.36-1.17-2.33
	c-4.47-9.91-9.76-18.7-15.88-26.38c-6.12-7.67-13.17-12.87-21.13-15.59l6.41,1.46C232.3,301.44,228.22,300.46,223.56,299.88z"/>
<path class="st0" d="M398.61,512.05c0-0.19,0.05-0.82,0.15-1.89c0.1-1.07,0.24-1.89,0.44-2.48h5.83c2.52,0,4.61-0.15,6.27-0.44
	c1.65-0.29,2.67-1.5,3.06-3.64c0.39-2.14,0.15-5.58-0.73-10.35c-0.87-4.76-2.67-11.61-5.39-20.55l-13.99-46.92h-67.91l-11.37,38.18
	c-3.31,11.27-5.54,19.87-6.7,25.79c-1.17,5.93-1.41,10.2-0.73,12.82c0.68,2.62,2.14,4.13,4.37,4.52c2.23,0.39,5.1,0.58,8.6,0.58
	h5.83c0,0.2,0.05,0.87,0.15,2.04c0.1,1.17,0.24,1.94,0.44,2.33h-26.23h-2.33h-20.11c0-0.19,0.05-0.82,0.15-1.89
	c0.1-1.07,0.24-1.89,0.44-2.48h6.12c2.52,0,4.71-0.15,6.56-0.44c1.84-0.29,3.64-1.36,5.39-3.21c1.75-1.84,3.59-4.9,5.54-9.18
	c1.94-4.27,4.18-10.49,6.7-18.65l50.13-166.42l-0.87-2.91c2.91-0.39,5.58-1.55,8.01-3.5c2.43-1.94,5.2-5.05,8.31-9.33h2.33
	l4.08,12.82l54.79,178.95c1.94,5.64,3.54,9.96,4.81,12.97c1.26,3.01,2.48,5.15,3.64,6.41c1.17,1.27,2.23,1.99,3.21,2.19
	c0.97,0.2,2.14,0.29,3.5,0.29h6.41c0,0.2,0.05,0.87,0.15,2.04c0.1,1.17,0.24,1.94,0.44,2.33h-13.99h-23.9H398.61z M326.91,423.75
	h66.74l-33.52-111.62L326.91,423.75z"/>
<path class="st0" d="M458.45,304.54c0-0.19-0.05-0.87-0.15-2.04c-0.1-1.17-0.25-2.04-0.44-2.62h7.58h17.2h5.54h5.54l115.12,168.46
	l3.5,4.66l-0.58-139.31c0-7.58-0.29-13.36-0.87-17.34c-0.58-3.98-1.56-6.85-2.92-8.6c-1.36-1.75-3.16-2.72-5.39-2.91
	c-2.24-0.19-4.91-0.29-8.01-0.29h-2.04c-0.2-0.19-0.39-0.87-0.58-2.04c-0.2-1.17-0.39-2.04-0.58-2.62h20.4h6.7h20.4
	c-0.2,0.2-0.39,0.87-0.58,2.04c-0.2,1.17-0.39,2.04-0.58,2.62h-2.04c-2.91,0-5.44,0.05-7.58,0.15c-2.14,0.1-3.89,0.83-5.25,2.19
	c-1.36,1.36-2.43,3.55-3.21,6.56c-0.78,3.01-1.27,7.34-1.46,12.97L617,512.05h-4.66l-21.86-31.48l-102.3-147.76l0.58,139.89h0.29
	c0,8.94,0.24,15.79,0.73,20.55c0.48,4.76,1.21,8.21,2.19,10.35c0.97,2.14,2.33,3.35,4.08,3.64c1.75,0.29,3.79,0.44,6.12,0.44h6.41
	c0,0.2,0.05,0.87,0.15,2.04c0.1,1.17,0.24,1.94,0.44,2.33h-20.11h-6.7h-20.11c0-0.19,0.05-0.82,0.15-1.89
	c0.1-1.07,0.24-1.89,0.44-2.48h6.41c2.33,0,4.37-0.15,6.12-0.44c1.75-0.29,3.11-1.6,4.08-3.93c0.97-2.33,1.7-6.07,2.19-11.22
	c0.48-5.15,0.73-12.58,0.73-22.3l0.29-145.14l-6.99-10.2l-0.29,0.29c-1.75-2.72-3.16-4.76-4.23-6.12c-1.07-1.36-1.99-2.33-2.77-2.91
	c-0.78-0.58-1.41-0.92-1.89-1.02c-0.49-0.1-1.02-0.15-1.6-0.15H458.45z"/>
<path class="st0" d="M922.7,512.05c0-0.19,0.05-0.82,0.15-1.89c0.1-1.07,0.24-1.89,0.44-2.48h5.83c2.52,0,4.61-0.15,6.27-0.44
	c1.65-0.29,2.67-1.5,3.06-3.64c0.39-2.14,0.15-5.58-0.73-10.35c-0.87-4.76-2.67-11.61-5.39-20.55l-13.99-46.92h-67.91l-11.37,38.18
	c-3.31,11.27-5.54,19.87-6.7,25.79c-1.17,5.93-1.41,10.2-0.73,12.82c0.68,2.62,2.14,4.13,4.37,4.52c2.23,0.39,5.1,0.58,8.6,0.58
	h5.83c0,0.2,0.05,0.87,0.15,2.04c0.1,1.17,0.24,1.94,0.44,2.33h-26.23h-2.33h-20.11c0-0.19,0.05-0.82,0.15-1.89
	c0.1-1.07,0.24-1.89,0.44-2.48h6.12c2.52,0,4.71-0.15,6.56-0.44c1.84-0.29,3.64-1.36,5.39-3.21c1.75-1.84,3.59-4.9,5.54-9.18
	c1.94-4.27,4.18-10.49,6.7-18.65l50.13-166.42l-0.87-2.91c2.91-0.39,5.58-1.55,8.01-3.5c2.43-1.94,5.2-5.05,8.31-9.33h2.33
	l4.08,12.82L960,485.82c1.94,5.64,3.54,9.96,4.81,12.97c1.26,3.01,2.48,5.15,3.64,6.41c1.17,1.27,2.23,1.99,3.21,2.19
	c0.97,0.2,2.14,0.29,3.5,0.29h6.41c0,0.2,0.05,0.87,0.15,2.04c0.1,1.17,0.24,1.94,0.44,2.33h-13.99h-23.9H922.7z M851,423.75h66.74
	l-33.52-111.62L851,423.75z"/>
<g>
	<path class="st0" d="M1145.02,309.28l-23.1-5.49c-0.97-0.38-1.93-0.67-2.89-0.87c-0.97-0.19-1.93-0.38-2.89-0.58
		c-0.19-0.19-0.48-0.29-0.87-0.29c-1.93-0.19-3.75-0.33-5.49-0.43c-1.73-0.09-3.66-0.14-5.78-0.14c-12.13,0-20.65,3.18-25.56,9.53
		c-4.91,6.35-7.36,17.52-7.36,33.5c0,5.39,0.72,10.25,2.17,14.58c1.44,4.33,4.09,8.47,7.94,12.42c3.85,3.95,9.1,7.85,15.74,11.7
		c6.64,3.85,15.16,7.99,25.56,12.42c10.59,4.43,19.25,8.81,25.99,13.14c6.74,4.33,12.08,9,16.03,14.01
		c3.94,5.01,6.64,10.5,8.09,16.46c1.44,5.97,2.17,12.81,2.17,20.5c0,10.21-1.06,18.87-3.18,25.99c-2.12,7.12-5.49,12.9-10.11,17.33
		c-4.62,4.43-10.69,7.61-18.19,9.53c-7.51,1.92-16.65,2.89-27.43,2.89c-9.44,0-17.71-0.92-24.83-2.74
		c-7.12-1.83-13.48-4.95-19.06-9.39c-6.93-5.2-11.84-8.95-14.73-11.26c-2.89-2.31-4.33-3.66-4.33-4.04
		c-0.58,1.73-0.92,2.99-1.01,3.75c-0.1,0.77-0.19,1.3-0.29,1.59c-0.1,0.29-0.39,0.53-0.87,0.72c-0.48,0.19-1.3,0.48-2.45,0.87
		v-23.68v-16.75c1.34,0.39,2.17,0.58,2.45,0.58c0.29,0,0.53,0,0.72,0l0.29,0.87c0.38,0.77,0.77,1.64,1.15,2.6
		c4.81,10.97,10.11,20.99,15.88,30.03c5.78,9.05,11.55,15.12,17.33,18.19c8.28,4.24,18.19,6.35,29.74,6.35
		c7.51,0,13.86-0.82,19.06-2.45c5.2-1.63,9.39-4.33,12.56-8.09c3.18-3.75,5.49-8.61,6.93-14.58c1.44-5.96,2.17-13.28,2.17-21.95
		c0-4.81-0.68-9.19-2.02-13.14c-1.35-3.94-3.8-7.75-7.36-11.41c-3.57-3.66-8.42-7.26-14.58-10.83c-6.16-3.56-14.06-7.36-23.68-11.41
		c-11.17-4.62-20.36-9.19-27.58-13.72c-7.22-4.52-12.9-9.39-17.04-14.58c-4.14-5.2-6.98-10.83-8.52-16.89
		c-1.54-6.07-2.31-13.04-2.31-20.94c0-9.82,0.87-18.14,2.6-24.98c1.73-6.83,4.62-12.37,8.66-16.61c4.04-4.23,9.29-7.31,15.74-9.24
		c6.45-1.92,14.29-2.89,23.54-2.89c9.24,0,17.13,0.77,23.68,2.31C1134.24,303.32,1140.01,305.82,1145.02,309.28z M1116.14,302.35
		c9.82,3.47,17.52,6.31,23.1,8.52c5.58,2.22,9.82,3.9,12.71,5.05c3.47,1.35,5.68,2.41,6.64,3.18c0.96-2.5,1.34-3.8,1.16-3.9
		c-0.19-0.09,0.38-0.43,1.73-1.01c0.58-0.19,0.96-0.29,1.15-0.29h0.29v18.48v17.04c-1.35-0.38-1.98-0.58-1.88-0.58
		c0.09,0-0.24-0.09-1.01-0.29c0-0.19-0.1-0.48-0.29-0.87c-0.39-0.58-0.77-1.34-1.16-2.31c-4.43-9.82-9.67-18.53-15.74-26.13
		c-6.06-7.6-13.04-12.75-20.94-15.45l6.35,1.44C1124.81,303.9,1120.76,302.93,1116.14,302.35z"/>
	<path class="st0" d="M1202.2,407.47c0-19.83,1.73-36.63,5.2-50.39c3.47-13.76,9.16-24.88,17.06-33.35
		c7.91-8.47,18.17-14.63,30.8-18.48c12.63-3.85,28.1-5.78,46.41-5.78c18.89,0,34.85,1.93,47.86,5.78
		c13.01,3.85,23.57,10.01,31.67,18.48c8.09,8.47,13.97,19.59,17.64,33.35c3.66,13.77,5.5,30.57,5.5,50.39
		c0,19.83-1.88,36.63-5.64,50.39c-3.76,13.77-9.79,24.88-18.08,33.35c-8.29,8.47-19.13,14.63-32.53,18.48
		c-13.4,3.85-29.83,5.77-49.3,5.77c-17.74,0-32.73-1.93-44.97-5.77c-12.24-3.85-22.22-10.01-29.93-18.48
		c-7.72-8.47-13.26-19.59-16.63-33.35C1203.88,444.1,1202.2,427.3,1202.2,407.47z M1298.94,513.45c14.44,0,26.71-1.88,36.82-5.63
		c10.11-3.75,18.29-9.82,24.55-18.19c6.25-8.37,10.78-19.3,13.57-32.78c2.79-13.47,4.19-29.93,4.19-49.38
		c0-19.44-1.35-35.9-4.04-49.38c-2.7-13.47-7.08-24.4-13.14-32.78c-6.06-8.37-14.01-14.44-23.82-18.19
		c-9.82-3.75-21.76-5.63-35.81-5.63c-13.48,0-24.88,1.88-34.22,5.63c-9.34,3.75-16.89,9.82-22.67,18.19
		c-5.78,8.38-9.96,19.3-12.56,32.78c-2.6,13.48-3.9,29.94-3.9,49.38c0,19.45,1.25,35.91,3.75,49.38c2.5,13.48,6.54,24.4,12.13,32.78
		c5.58,8.37,12.9,14.44,21.95,18.19C1274.78,511.57,1285.85,513.45,1298.94,513.45z"/>
	<path class="st0" d="M1443.91,306.97c-0.19-0.19-0.39-0.87-0.58-2.02c-0.19-1.15-0.39-2.02-0.58-2.6h17.33h22.81h26.19
		c11.32,0,20.86,1.06,28.63,3.18c7.77,2.12,14.1,5.49,19,10.11c4.89,4.62,8.39,10.68,10.5,18.19c2.11,7.51,3.17,16.65,3.17,27.43
		c0,11.36-1.29,20.55-3.88,27.58c-2.59,7.03-6.81,12.52-12.66,16.46c-5.85,3.95-13.53,6.6-23.03,7.94
		c-9.5,1.35-21.06,2.02-34.69,2.02h-13.24v74.22c0,4.81,0.23,8.52,0.7,11.12c0.47,2.6,1.27,4.48,2.41,5.63
		c1.13,1.15,2.59,1.78,4.39,1.88c1.79,0.1,3.91,0.15,6.37,0.15h2.02l0.87,4.33h-17.04h-22.52h-17.33c0.19-0.19,0.43-0.87,0.72-2.02
		c0.29-1.15,0.43-1.92,0.43-2.31h2.02c2.69,0,4.91-0.05,6.64-0.15c1.73-0.09,3.18-0.72,4.33-1.88c1.16-1.16,1.97-3.03,2.45-5.63
		c0.48-2.6,0.72-6.3,0.72-11.12V325.74c0-4.81-0.24-8.52-0.72-11.12c-0.48-2.6-1.3-4.48-2.45-5.63c-1.15-1.16-2.6-1.78-4.33-1.88
		c-1.73-0.09-3.95-0.14-6.64-0.14H1443.91z M1482.89,410.36h13.22c9.77,0,18.02-0.67,24.73-2.02c6.71-1.34,12.12-3.9,16.25-7.65
		c4.12-3.75,7.14-9.1,9.06-16.03c1.91-6.93,2.87-15.98,2.87-27.15c0-9.43-0.82-17.37-2.45-23.82c-1.63-6.45-4.21-11.7-7.76-15.74
		c-3.55-4.04-8.24-6.98-14.09-8.81c-5.85-1.83-12.99-2.74-21.42-2.74h-20.41v19.35V410.36z"/>
	<path class="st0" d="M1778.6,302.35c0,0.97-0.1,1.73-0.29,2.31c-0.19,0.58-0.39,1.35-0.58,2.31h-2.02c-2.45,0-4.58,0.05-6.37,0.14
		c-1.79,0.1-3.25,0.68-4.39,1.73c-1.13,1.06-1.94,2.79-2.4,5.2c-0.47,2.41-0.7,5.83-0.7,10.25v166.62c0,4.43,0.23,7.85,0.71,10.25
		c0.47,2.41,1.27,4.14,2.41,5.2c1.14,1.06,2.6,1.64,4.4,1.73c1.8,0.1,3.92,0.15,6.38,0.15h1.99l0.87,4.33h-56.89
		c0.19-0.19,0.43-0.87,0.72-2.02c0.29-1.15,0.43-1.92,0.43-2.31h2.02c2.69,0,4.91-0.05,6.64-0.15c1.73-0.09,3.18-0.67,4.33-1.73
		c1.16-1.06,1.97-2.79,2.45-5.2c0.48-2.4,0.72-5.82,0.72-10.25v-84.61h-95.01v84.61c0,4.43,0.24,7.85,0.72,10.25
		c0.48,2.41,1.3,4.14,2.45,5.2c1.16,1.06,2.64,1.64,4.48,1.73c1.83,0.1,3.99,0.15,6.5,0.15h1.73c0.19,0.19,0.38,0.87,0.58,2.02
		c0.19,1.16,0.38,1.93,0.58,2.31h-56.89c0-0.96,0.09-1.73,0.29-2.31c0.19-0.58,0.38-1.25,0.58-2.02h2.02c2.69,0,4.91-0.05,6.64-0.15
		c1.73-0.09,3.18-0.67,4.33-1.73c1.16-1.06,1.97-2.79,2.45-5.2c0.48-2.4,0.72-5.82,0.72-10.25V324.3c0-4.43-0.24-7.84-0.72-10.25
		c-0.48-2.4-1.3-4.14-2.45-5.2c-1.15-1.06-2.6-1.63-4.33-1.73c-1.73-0.09-3.95-0.14-6.64-0.14h-2.02l-0.87-4.62h56.89
		c-0.19,0.19-0.39,0.87-0.58,2.02c-0.19,1.16-0.39,2.02-0.58,2.6h-1.73c-2.5,0-4.67,0.05-6.5,0.14c-1.83,0.1-3.32,0.68-4.48,1.73
		c-1.15,1.06-1.98,2.79-2.45,5.2c-0.48,2.41-0.72,5.83-0.72,10.25v79.99h95.01V324.3c0-4.43-0.24-7.84-0.72-10.25
		c-0.48-2.4-1.3-4.14-2.45-5.2c-1.15-1.06-2.6-1.63-4.33-1.73c-1.73-0.09-3.95-0.14-6.64-0.14h-2.02c-0.19-0.19-0.39-0.87-0.58-2.02
		c-0.19-1.15-0.39-2.02-0.58-2.6H1778.6z"/>
	<path class="st0" d="M1868.99,302.35l-0.87,4.62h-2.02c-2.5,0-4.67,0.05-6.5,0.14c-1.83,0.1-3.32,0.68-4.48,1.73
		c-1.15,1.06-1.98,2.79-2.45,5.2c-0.48,2.41-0.72,5.83-0.72,10.25v166.62c0,4.43,0.24,7.85,0.72,10.25c0.48,2.41,1.3,4.14,2.45,5.2
		c1.16,1.06,2.64,1.64,4.48,1.73c1.83,0.1,3.99,0.15,6.5,0.15h2.02c0,0.77,0.09,1.44,0.29,2.02c0.19,0.58,0.38,1.35,0.58,2.31
		h-56.89l0.58-2.02c0.19-1.34,0.29-2.12,0.29-2.31h2.02c2.69,0,4.91-0.05,6.64-0.15c1.73-0.09,3.18-0.67,4.33-1.73
		c1.15-1.06,1.97-2.79,2.45-5.2c0.48-2.4,0.72-5.82,0.72-10.25V324.3c0-4.43-0.24-7.84-0.72-10.25c-0.48-2.4-1.3-4.14-2.45-5.2
		c-1.16-1.06-2.6-1.63-4.33-1.73c-1.73-0.09-3.95-0.14-6.64-0.14h-2.02c0-0.96-0.1-1.73-0.29-2.31c-0.19-0.58-0.39-1.34-0.58-2.31
		H1868.99z"/>
	<path class="st0" d="M2010.2,512.58c0-0.19,0.05-0.82,0.15-1.88c0.09-1.06,0.24-1.88,0.43-2.45h5.78c2.5,0,4.57-0.15,6.21-0.43
		c1.63-0.29,2.64-1.49,3.03-3.61c0.38-2.12,0.15-5.53-0.72-10.25c-0.87-4.71-2.65-11.5-5.34-20.36l-14.15-46.49h-67l-11.26,37.83
		c-3.28,11.17-5.49,19.69-6.64,25.56c-1.15,5.88-1.4,10.11-0.72,12.71c0.67,2.6,2.12,4.09,4.33,4.48c2.21,0.39,5.05,0.58,8.52,0.58
		h5.77c0,0.19,0.05,0.87,0.15,2.02c0.09,1.16,0.24,1.93,0.43,2.31h-25.99h-2.31h-19.93c0-0.19,0.05-0.82,0.15-1.88
		c0.09-1.06,0.24-1.88,0.43-2.45h6.07c2.31,0,4.38-0.1,6.21-0.29c1.83-0.19,3.61-1.2,5.34-3.03c1.73-1.83,3.51-4.72,5.34-8.66
		c1.83-3.94,3.99-9.67,6.5-17.18l49.96-166.91l-0.87-2.89c3.08-0.38,5.82-1.54,8.23-3.47c2.4-1.92,5.15-5,8.23-9.24h2.6l3.75,12.71
		l50.54,164.32c2.69,8.86,4.91,15.64,6.64,20.36c1.73,4.72,3.22,8.14,4.48,10.25c1.25,2.12,2.45,3.32,3.61,3.61
		c1.16,0.29,2.5,0.43,4.04,0.43h6.35c0,0.19,0.04,0.87,0.15,2.02c0.09,1.16,0.24,1.93,0.43,2.31h-13.86h-23.68H2010.2z
		 M1939.16,425.08H2005l-33.21-110.02L1939.16,425.08z"/>
</g>
<g>
	<path class="st0" d="M251.12,618.71c4.92,5.57,8.38,9.61,10.39,12.13c2,2.52,2.94,3.98,2.81,4.37c0.65-1.68,0.9-2.55,0.78-2.62
		c-0.13-0.06,0.26-0.29,1.16-0.68c0.39-0.13,0.65-0.19,0.78-0.19h0.19v12.42v11.84c-0.26,0-0.62-0.06-1.07-0.19
		c-0.46-0.13-0.75-0.19-0.87-0.19l-0.19-0.58c-0.26-0.51-0.52-1.1-0.78-1.75c-3.49-8.15-7.22-15.63-11.16-22.42
		c-3.95-6.79-7.73-11.81-11.36-15.04c-3.11-2.59-6.67-4.47-10.68-5.63c-4.01-1.16-9.12-1.75-15.34-1.75
		c-8.8,0-16.24,1.26-22.32,3.79c-6.08,2.52-11.03,6.6-14.85,12.23c-3.82,5.63-6.57,12.98-8.25,22.03
		c-1.68,9.06-2.52,20.12-2.52,33.19c0,13.2,0.81,24.33,2.43,33.39c1.62,9.06,4.24,16.4,7.86,22.03c3.62,5.63,8.35,9.71,14.17,12.23
		c5.82,2.52,12.94,3.79,21.35,3.79c9.32,0,16.79-0.36,22.42-1.07c5.63-0.71,10.12-1.91,13.49-3.59c1.03-0.78,2.17-2.07,3.4-3.88
		c1.23-1.81,2.55-3.98,3.98-6.5c1.42-2.52,2.85-5.27,4.27-8.25c1.42-2.98,2.78-5.95,4.08-8.93l2.14-0.58v10.87v13.01
		c-0.13,0-0.36-0.1-0.68-0.29c-0.32-0.19-0.62-0.36-0.87-0.48c0-3.11-0.52-4.08-1.55-2.91l-1.55,1.55
		c-1.43,2.33-3.24,4.21-5.43,5.63c-3.49,2.33-8.61,4.01-15.34,5.05c-6.73,1.03-16.31,1.55-28.73,1.55c-11.39,0-21.06-1.3-29.02-3.88
		c-7.96-2.59-14.4-6.73-19.31-12.42c-4.92-5.69-8.48-13.17-10.68-22.42c-2.2-9.25-3.3-20.54-3.3-33.88c0-13.33,1.13-24.62,3.4-33.87
		c2.26-9.25,5.95-16.72,11.06-22.42c5.11-5.69,11.77-9.83,19.99-12.42c8.22-2.59,18.21-3.88,29.99-3.88
		c9.45,0,16.79,0.87,22.03,2.62c5.24,1.75,9.74,4.69,13.49,8.83L251.12,618.71z"/>
	<path class="st0" d="M360.02,750.32c0-0.13,0.03-0.55,0.1-1.26c0.06-0.71,0.16-1.26,0.29-1.65h3.88c1.68,0,3.07-0.1,4.17-0.29
		c1.1-0.19,1.78-1,2.04-2.43c0.26-1.42,0.1-3.72-0.49-6.89c-0.58-3.17-1.78-7.73-3.59-13.68l-9.51-31.25h-45.04l-7.57,25.43
		c-2.2,7.51-3.69,13.24-4.46,17.18c-0.78,3.95-0.94,6.79-0.49,8.54c0.45,1.75,1.42,2.75,2.91,3.01c1.49,0.26,3.4,0.39,5.73,0.39
		h3.88c0,0.13,0.03,0.58,0.1,1.36c0.06,0.78,0.16,1.3,0.29,1.55h-17.47h-1.55h-13.39c0-0.13,0.03-0.55,0.1-1.26
		c0.06-0.71,0.16-1.26,0.29-1.65h4.08c1.55,0,2.94-0.06,4.17-0.2c1.23-0.13,2.43-0.81,3.59-2.04c1.17-1.23,2.36-3.17,3.59-5.82
		c1.23-2.65,2.69-6.5,4.37-11.55l33.58-112.2l-0.58-1.94c2.07-0.26,3.91-1.03,5.53-2.33c1.62-1.29,3.46-3.36,5.53-6.21h1.75
		l2.52,8.54l33.97,110.45c1.81,5.95,3.3,10.52,4.46,13.68c1.16,3.17,2.17,5.47,3.01,6.89c0.84,1.42,1.65,2.23,2.43,2.43
		c0.78,0.19,1.68,0.29,2.72,0.29h4.27c0,0.13,0.03,0.58,0.1,1.36c0.06,0.78,0.16,1.3,0.29,1.55h-9.32h-15.92H360.02z M312.27,691.5
		h44.26l-22.32-73.96L312.27,691.5z"/>
	<path class="st0" d="M420.19,602.4c-0.39,1.3-0.75,2.4-1.07,3.3c-0.32,0.91-0.03,1.59,0.87,2.04c0.9,0.45,2.65,0.78,5.24,0.97
		c2.59,0.19,6.6,0.29,12.04,0.29h31.25h15.34h31.45c5.3,0,9.28-0.1,11.94-0.29c2.65-0.19,4.43-0.55,5.34-1.07
		c0.9-0.51,1.23-1.2,0.97-2.04c-0.26-0.84-0.71-1.91-1.36-3.2c0.13,0,0.55-0.03,1.26-0.1c0.71-0.06,1.26-0.16,1.65-0.29
		c0.52,1.16,0.97,2.33,1.36,3.49c0.39,1.16,0.84,2.33,1.36,3.49h1.17v3.49l4.08,11.65c-0.13,0-0.58-0.03-1.36-0.1
		c-0.78-0.06-1.36-0.16-1.75-0.29c-0.52-2.07-1.07-3.82-1.65-5.24c-0.58-1.42-1.62-2.55-3.11-3.4c-1.49-0.84-3.66-1.42-6.5-1.75
		c-2.85-0.32-6.86-0.48-12.03-0.48h-32.81v122.87c0,2.98,0.16,5.27,0.47,6.89c0.32,1.62,0.86,2.78,1.62,3.49
		c0.76,0.71,1.74,1.1,2.95,1.16c1.21,0.07,2.63,0.1,4.28,0.1h1.36c0.13,0.13,0.26,0.58,0.39,1.36c0.13,0.78,0.26,1.3,0.39,1.55
		h-38.24c0-0.65,0.06-1.16,0.19-1.55c0.13-0.39,0.26-0.84,0.39-1.36h1.36c1.81,0,3.3-0.03,4.47-0.1c1.16-0.06,2.14-0.45,2.91-1.16
		c0.78-0.71,1.33-1.87,1.65-3.49c0.32-1.62,0.48-3.91,0.48-6.89V612.89h-32.81c-5.43,0-9.51,0.19-12.23,0.58
		c-2.72,0.39-4.75,1-6.11,1.84c-1.36,0.84-2.3,1.98-2.81,3.4c-0.52,1.42-1.23,3.1-2.14,5.05c-0.13,0-0.58,0.03-1.36,0.1
		c-0.78,0.07-1.36,0.16-1.75,0.29c0.65-1.94,1.33-3.85,2.04-5.73c0.71-1.87,1.39-3.72,2.04-5.53v-3.88h1.36
		c0.52-1.17,0.97-2.33,1.36-3.49c0.39-1.17,0.78-2.33,1.16-3.49c0.13,0,0.55,0.03,1.26,0.1
		C419.25,602.18,419.81,602.28,420.19,602.4z"/>
	<path class="st0" d="M685.55,609.01c0,0.65-0.07,1.16-0.19,1.55c-0.13,0.39-0.26,0.91-0.39,1.55h-1.36c-1.65,0-3.08,0.03-4.28,0.1
		c-1.2,0.07-2.19,0.45-2.95,1.16c-0.76,0.71-1.3,1.88-1.62,3.49c-0.31,1.62-0.47,3.92-0.47,6.89v112c0,2.98,0.16,5.27,0.48,6.89
		c0.31,1.62,0.85,2.78,1.62,3.49c0.76,0.71,1.75,1.1,2.96,1.16c1.21,0.07,2.64,0.1,4.29,0.1h1.33l0.58,2.91h-38.24
		c0.13-0.13,0.29-0.58,0.49-1.36c0.19-0.77,0.29-1.29,0.29-1.55h1.36c1.81,0,3.3-0.03,4.46-0.1c1.17-0.06,2.14-0.45,2.91-1.16
		c0.78-0.71,1.33-1.87,1.65-3.49c0.32-1.62,0.49-3.91,0.49-6.89v-56.87h-63.86v56.87c0,2.98,0.16,5.27,0.49,6.89
		c0.32,1.62,0.87,2.78,1.65,3.49c0.78,0.71,1.78,1.1,3.01,1.16c1.23,0.07,2.68,0.1,4.37,0.1h1.16c0.13,0.13,0.26,0.58,0.39,1.36
		c0.13,0.78,0.26,1.3,0.39,1.55H568.3c0-0.65,0.06-1.16,0.19-1.55c0.13-0.39,0.26-0.84,0.39-1.36h1.36c1.81,0,3.3-0.03,4.47-0.1
		c1.16-0.06,2.13-0.45,2.91-1.16c0.78-0.71,1.33-1.87,1.65-3.49c0.32-1.62,0.49-3.91,0.49-6.89v-112c0-2.98-0.16-5.27-0.49-6.89
		c-0.32-1.62-0.87-2.78-1.65-3.49c-0.78-0.71-1.75-1.1-2.91-1.16c-1.17-0.06-2.65-0.1-4.47-0.1h-1.36l-0.58-3.1h38.24
		c-0.13,0.13-0.26,0.58-0.39,1.36c-0.13,0.78-0.26,1.36-0.39,1.75h-1.16c-1.68,0-3.14,0.03-4.37,0.1c-1.23,0.07-2.23,0.45-3.01,1.16
		c-0.78,0.71-1.33,1.88-1.65,3.49c-0.32,1.62-0.49,3.92-0.49,6.89v53.77h63.86v-53.77c0-2.98-0.16-5.27-0.49-6.89
		c-0.32-1.62-0.87-2.78-1.65-3.49c-0.78-0.71-1.75-1.1-2.91-1.16c-1.16-0.06-2.65-0.1-4.46-0.1h-1.36
		c-0.13-0.13-0.26-0.58-0.39-1.36c-0.13-0.78-0.26-1.36-0.39-1.75H685.55z"/>
	<path class="st0" d="M706.9,679.66c0-13.33,1.16-24.62,3.5-33.87c2.33-9.25,6.16-16.72,11.47-22.42
		c5.31-5.69,12.21-9.83,20.7-12.42c8.49-2.59,18.89-3.88,31.2-3.88c12.7,0,23.42,1.29,32.17,3.88c8.75,2.59,15.84,6.73,21.29,12.42
		c5.44,5.7,9.39,13.17,11.86,22.42c2.46,9.25,3.69,20.55,3.69,33.87c0,13.33-1.26,24.62-3.79,33.88
		c-2.53,9.25-6.58,16.73-12.15,22.42c-5.57,5.7-12.86,9.83-21.87,12.42c-9.01,2.59-20.05,3.88-33.14,3.88
		c-11.93,0-22-1.3-30.23-3.88c-8.23-2.59-14.93-6.73-20.12-12.42c-5.19-5.69-8.91-13.17-11.18-22.42
		C708.03,704.29,706.9,692.99,706.9,679.66z M771.93,750.9c9.71,0,17.96-1.26,24.75-3.79c6.79-2.52,12.29-6.6,16.5-12.23
		c4.2-5.63,7.25-12.97,9.12-22.03c1.87-9.06,2.81-20.12,2.81-33.19c0-13.07-0.91-24.13-2.72-33.19c-1.81-9.06-4.76-16.4-8.83-22.03
		c-4.08-5.63-9.42-9.71-16.02-12.23c-6.6-2.52-14.62-3.79-24.07-3.79c-9.06,0-16.73,1.26-23,3.79c-6.28,2.52-11.36,6.6-15.24,12.23
		c-3.88,5.63-6.7,12.98-8.44,22.03c-1.75,9.06-2.62,20.12-2.62,33.19c0,13.07,0.84,24.14,2.52,33.19c1.68,9.06,4.4,16.4,8.15,22.03
		c3.75,5.63,8.67,9.71,14.75,12.23C755.69,749.64,763.13,750.9,771.93,750.9z"/>
	<path class="st0" d="M952.26,747.8l-0.78,2.52h-34.94H891.7h-15.34h-11.45l0.39-1.36c0.13-0.9,0.19-1.42,0.19-1.55h1.36
		c1.81,0,3.3-0.03,4.47-0.1c1.16-0.06,2.14-0.49,2.91-1.26c0.78-0.78,1.33-2.04,1.65-3.79c0.32-1.75,0.49-4.24,0.49-7.47V624.73
		c0-3.23-0.16-5.73-0.49-7.47c-0.32-1.75-0.87-3.01-1.65-3.79c-0.78-0.78-1.75-1.2-2.91-1.26c-1.16-0.06-2.65-0.1-4.47-0.1h-1.36
		c0-0.65-0.07-1.16-0.19-1.55c-0.13-0.39-0.26-0.91-0.39-1.55h11.45h15.34h11.45l-0.58,3.1h-1.36c-1.68,0-3.14,0.03-4.37,0.1
		c-1.23,0.07-2.23,0.49-3.01,1.26s-1.33,2.04-1.65,3.79c-0.32,1.75-0.49,4.24-0.49,7.47v110.06v2.14v4.85
		c0.13,2.07,1,3.59,2.62,4.56c1.62,0.97,5.21,1.46,10.77,1.46h12.03c8.54,0,15.07-0.29,19.61-0.87c4.53-0.58,7.93-1.55,10.19-2.91
		c2.26-1.36,3.75-3.14,4.46-5.34c0.71-2.2,1.52-4.85,2.43-7.96l3.11-0.58c-0.78,2.98-1.55,5.92-2.33,8.83
		c-0.78,2.91-1.62,5.86-2.52,8.83H952.26z"/>
	<path class="st0" d="M1010.89,609.01l-0.58,3.1h-1.36c-1.68,0-3.14,0.03-4.37,0.1c-1.23,0.07-2.23,0.45-3.01,1.16
		c-0.78,0.71-1.33,1.88-1.65,3.49c-0.32,1.62-0.49,3.92-0.49,6.89v112c0,2.98,0.16,5.27,0.49,6.89c0.32,1.62,0.87,2.78,1.65,3.49
		c0.78,0.71,1.78,1.1,3.01,1.16c1.23,0.07,2.68,0.1,4.37,0.1h1.36c0,0.52,0.06,0.97,0.19,1.36c0.13,0.39,0.26,0.91,0.39,1.55h-38.24
		l0.39-1.36c0.13-0.9,0.19-1.42,0.19-1.55h1.36c1.81,0,3.3-0.03,4.47-0.1c1.16-0.06,2.14-0.45,2.91-1.16
		c0.78-0.71,1.33-1.87,1.65-3.49c0.32-1.62,0.49-3.91,0.49-6.89v-112c0-2.98-0.16-5.27-0.49-6.89c-0.32-1.62-0.87-2.78-1.65-3.49
		c-0.78-0.71-1.75-1.1-2.91-1.16c-1.17-0.06-2.65-0.1-4.47-0.1h-1.36c0-0.65-0.07-1.16-0.19-1.55c-0.13-0.39-0.26-0.91-0.39-1.55
		H1010.89z"/>
	<path class="st0" d="M1132.4,618.71c4.92,5.57,8.38,9.61,10.38,12.13c2.01,2.52,2.94,3.98,2.82,4.37c0.65-1.68,0.9-2.55,0.77-2.62
		c-0.13-0.06,0.26-0.29,1.17-0.68c0.39-0.13,0.65-0.19,0.77-0.19h0.2v12.42v11.84c-0.26,0-0.62-0.06-1.07-0.19
		c-0.45-0.13-0.75-0.19-0.87-0.19l-0.2-0.58c-0.26-0.51-0.52-1.1-0.77-1.75c-3.49-8.15-7.22-15.63-11.16-22.42
		c-3.95-6.79-7.74-11.81-11.35-15.04c-3.11-2.59-6.67-4.47-10.68-5.63c-4.01-1.16-9.12-1.75-15.33-1.75
		c-8.8,0-16.24,1.26-22.32,3.79c-6.08,2.52-11.03,6.6-14.85,12.23c-3.82,5.63-6.57,12.98-8.25,22.03
		c-1.68,9.06-2.52,20.12-2.52,33.19c0,13.2,0.81,24.33,2.43,33.39c1.62,9.06,4.24,16.4,7.86,22.03c3.62,5.63,8.35,9.71,14.17,12.23
		c5.82,2.52,12.94,3.79,21.35,3.79c9.32,0,16.79-0.36,22.42-1.07c5.63-0.71,10.13-1.91,13.49-3.59c1.03-0.78,2.17-2.07,3.4-3.88
		c1.23-1.81,2.55-3.98,3.98-6.5s2.84-5.27,4.27-8.25c1.42-2.98,2.78-5.95,4.08-8.93l2.13-0.58v10.87v13.01
		c-0.13,0-0.36-0.1-0.68-0.29c-0.32-0.19-0.62-0.36-0.88-0.48c0-3.11-0.52-4.08-1.55-2.91l-1.55,1.55
		c-1.43,2.33-3.24,4.21-5.43,5.63c-3.49,2.33-8.61,4.01-15.34,5.05c-6.73,1.03-16.3,1.55-28.73,1.55c-11.39,0-21.06-1.3-29.02-3.88
		c-7.96-2.59-14.4-6.73-19.31-12.42c-4.92-5.69-8.48-13.17-10.68-22.42c-2.2-9.25-3.3-20.54-3.3-33.88c0-13.33,1.13-24.62,3.4-33.87
		c2.26-9.25,5.95-16.72,11.06-22.42c5.11-5.69,11.77-9.83,19.99-12.42c8.22-2.59,18.21-3.88,29.99-3.88
		c9.45,0,16.79,0.87,22.03,2.62c5.24,1.75,9.74,4.69,13.49,8.83L1132.4,618.71z"/>
	<path class="st0" d="M1311.77,618.71c4.92,5.57,8.38,9.61,10.39,12.13c2.01,2.52,2.94,3.98,2.82,4.37c0.65-1.68,0.9-2.55,0.77-2.62
		c-0.13-0.06,0.26-0.29,1.17-0.68c0.39-0.13,0.65-0.19,0.78-0.19h0.19v12.42v11.84c-0.26,0-0.62-0.06-1.07-0.19
		c-0.45-0.13-0.75-0.19-0.87-0.19l-0.2-0.58c-0.26-0.51-0.52-1.1-0.77-1.75c-3.49-8.15-7.22-15.63-11.16-22.42
		c-3.95-6.79-7.73-11.81-11.35-15.04c-3.11-2.59-6.67-4.47-10.68-5.63c-4.01-1.16-9.12-1.75-15.34-1.75
		c-8.8,0-16.24,1.26-22.32,3.79c-6.08,2.52-11.03,6.6-14.85,12.23c-3.82,5.63-6.57,12.98-8.25,22.03
		c-1.68,9.06-2.52,20.12-2.52,33.19c0,13.2,0.81,24.33,2.43,33.39c1.62,9.06,4.24,16.4,7.86,22.03c3.62,5.63,8.35,9.71,14.17,12.23
		c5.82,2.52,12.94,3.79,21.35,3.79c9.32,0,16.79-0.36,22.42-1.07c5.63-0.71,10.12-1.91,13.49-3.59c1.03-0.78,2.17-2.07,3.4-3.88
		c1.23-1.81,2.55-3.98,3.98-6.5c1.42-2.52,2.84-5.27,4.27-8.25c1.42-2.98,2.78-5.95,4.08-8.93l2.13-0.58v10.87v13.01
		c-0.13,0-0.36-0.1-0.68-0.29c-0.32-0.19-0.62-0.36-0.87-0.48c0-3.11-0.52-4.08-1.55-2.91l-1.55,1.55
		c-1.43,2.33-3.24,4.21-5.43,5.63c-3.49,2.33-8.61,4.01-15.34,5.05c-6.73,1.03-16.31,1.55-28.73,1.55c-11.39,0-21.06-1.3-29.02-3.88
		c-7.96-2.59-14.4-6.73-19.32-12.42c-4.92-5.69-8.48-13.17-10.68-22.42c-2.2-9.25-3.3-20.54-3.3-33.88c0-13.33,1.13-24.62,3.4-33.87
		c2.26-9.25,5.95-16.72,11.06-22.42c5.11-5.69,11.78-9.83,19.99-12.42c8.22-2.59,18.21-3.88,29.99-3.88
		c9.45,0,16.79,0.87,22.03,2.62c5.24,1.75,9.74,4.69,13.49,8.83L1311.77,618.71z"/>
	<path class="st0" d="M1347.1,679.66c0-13.33,1.17-24.62,3.5-33.87c2.33-9.25,6.16-16.72,11.47-22.42
		c5.31-5.69,12.21-9.83,20.7-12.42c8.49-2.59,18.89-3.88,31.2-3.88c12.7,0,23.42,1.29,32.17,3.88c8.75,2.59,15.85,6.73,21.29,12.42
		c5.44,5.7,9.39,13.17,11.86,22.42c2.46,9.25,3.69,20.55,3.69,33.87c0,13.33-1.26,24.62-3.79,33.88
		c-2.53,9.25-6.58,16.73-12.15,22.42c-5.57,5.7-12.86,9.83-21.87,12.42c-9.01,2.59-20.05,3.88-33.14,3.88
		c-11.92,0-22-1.3-30.23-3.88c-8.23-2.59-14.94-6.73-20.12-12.42c-5.19-5.69-8.91-13.17-11.18-22.42
		C1348.23,704.29,1347.1,692.99,1347.1,679.66z M1412.12,750.9c9.71,0,17.96-1.26,24.75-3.79c6.79-2.52,12.29-6.6,16.5-12.23
		c4.2-5.63,7.25-12.97,9.12-22.03c1.88-9.06,2.82-20.12,2.82-33.19c0-13.07-0.91-24.13-2.72-33.19c-1.81-9.06-4.76-16.4-8.83-22.03
		c-4.07-5.63-9.41-9.71-16.01-12.23c-6.6-2.52-14.63-3.79-24.07-3.79c-9.06,0-16.73,1.26-23,3.79c-6.28,2.52-11.35,6.6-15.24,12.23
		c-3.88,5.63-6.7,12.98-8.45,22.03c-1.75,9.06-2.62,20.12-2.62,33.19c0,13.07,0.84,24.14,2.52,33.19c1.68,9.06,4.4,16.4,8.15,22.03
		c3.75,5.63,8.67,9.71,14.75,12.23C1395.88,749.64,1403.32,750.9,1412.12,750.9z"/>
	<path class="st0" d="M1592.46,747.8l-0.78,2.52h-34.94h-24.85h-15.33h-11.45l0.39-1.36c0.13-0.9,0.19-1.42,0.19-1.55h1.36
		c1.81,0,3.3-0.03,4.46-0.1c1.16-0.06,2.13-0.49,2.91-1.26c0.78-0.78,1.33-2.04,1.65-3.79c0.32-1.75,0.49-4.24,0.49-7.47V624.73
		c0-3.23-0.16-5.73-0.49-7.47c-0.32-1.75-0.87-3.01-1.65-3.79c-0.78-0.78-1.75-1.2-2.91-1.26c-1.17-0.06-2.66-0.1-4.46-0.1h-1.36
		c0-0.65-0.07-1.16-0.19-1.55c-0.13-0.39-0.26-0.91-0.39-1.55h11.45h15.33h11.45l-0.58,3.1h-1.36c-1.68,0-3.14,0.03-4.37,0.1
		c-1.23,0.07-2.23,0.49-3.01,1.26c-0.78,0.78-1.33,2.04-1.65,3.79c-0.32,1.75-0.49,4.24-0.49,7.47v110.06v2.14v4.85
		c0.13,2.07,1,3.59,2.62,4.56c1.62,0.97,5.21,1.46,10.77,1.46h12.04c8.54,0,15.07-0.29,19.6-0.87c4.53-0.58,7.93-1.55,10.19-2.91
		c2.26-1.36,3.75-3.14,4.46-5.34c0.71-2.2,1.52-4.85,2.43-7.96l3.1-0.58c-0.77,2.98-1.55,5.92-2.33,8.83
		c-0.78,2.91-1.62,5.86-2.52,8.83H1592.46z"/>
	<path class="st0" d="M1700.19,747.8l-0.78,2.52h-34.94h-24.85h-15.33h-11.45l0.39-1.36c0.13-0.9,0.19-1.42,0.19-1.55h1.36
		c1.81,0,3.3-0.03,4.46-0.1c1.16-0.06,2.13-0.49,2.91-1.26c0.78-0.78,1.33-2.04,1.65-3.79c0.32-1.75,0.49-4.24,0.49-7.47V624.73
		c0-3.23-0.16-5.73-0.49-7.47c-0.32-1.75-0.87-3.01-1.65-3.79c-0.78-0.78-1.75-1.2-2.91-1.26c-1.17-0.06-2.66-0.1-4.46-0.1h-1.36
		c0-0.65-0.07-1.16-0.19-1.55c-0.13-0.39-0.26-0.91-0.39-1.55h11.45h15.33h11.45l-0.58,3.1h-1.36c-1.68,0-3.14,0.03-4.37,0.1
		c-1.23,0.07-2.23,0.49-3.01,1.26c-0.78,0.78-1.33,2.04-1.65,3.79c-0.32,1.75-0.49,4.24-0.49,7.47v110.06v2.14v4.85
		c0.13,2.07,1,3.59,2.62,4.56c1.62,0.97,5.21,1.46,10.77,1.46h12.04c8.54,0,15.07-0.29,19.6-0.87c4.53-0.58,7.93-1.55,10.19-2.91
		c2.26-1.36,3.75-3.14,4.46-5.34c0.71-2.2,1.52-4.85,2.43-7.96l3.1-0.58c-0.77,2.98-1.55,5.92-2.33,8.83
		c-0.78,2.91-1.62,5.86-2.52,8.83H1700.19z"/>
	<path class="st0" d="M1807.73,736.34c0.13,0,0.65-0.13,1.55-0.39c0.39-0.13,0.84-0.26,1.36-0.39c-0.26,2.46-0.55,4.92-0.87,7.38
		c-0.32,2.46-0.68,4.92-1.07,7.38h-22.52h-38.82h-15.33h-11.45c0-0.65,0.06-1.16,0.19-1.55c0.13-0.39,0.26-0.84,0.39-1.36h1.36
		c1.81,0,3.3-0.03,4.46-0.1c1.16-0.06,2.13-0.49,2.91-1.26c0.78-0.78,1.33-2.04,1.65-3.79c0.32-1.75,0.49-4.24,0.49-7.47V624.73
		c0-3.23-0.16-5.73-0.49-7.47c-0.32-1.75-0.87-3.01-1.65-3.79c-0.78-0.78-1.75-1.2-2.91-1.26c-1.17-0.06-2.66-0.1-4.46-0.1h-1.36
		l-0.58-3.1h11.45h15.33h33.97h22.52c0.13,1.42,0.22,2.65,0.29,3.69c0.06,1.04,0.1,2.27,0.1,3.69c0.26,1.43,0.39,2.65,0.39,3.69
		c0,1.04,0.06,2.27,0.2,3.69c-0.13,0-0.58-0.1-1.36-0.29c-0.78-0.19-1.36-0.36-1.75-0.49v-1.36c-0.13-2.07-0.13-3.85,0-5.34
		c0.13-1.49-0.32-2.69-1.36-3.59c-1.04-0.9-2.95-1.55-5.73-1.94c-2.78-0.39-7.15-0.58-13.1-0.58h-34.16v14.56v48.92h22.32
		c5.05,0,8.9-0.22,11.55-0.68c2.65-0.45,4.56-1.2,5.73-2.23c1.17-1.03,1.81-2.39,1.94-4.08c0.13-1.68,0.2-3.75,0.2-6.21v-1.36
		c0.13-0.13,0.58-0.26,1.36-0.39c0.78-0.13,1.36-0.26,1.75-0.39v15.34v1.16v15.33c-0.65-0.26-1.16-0.42-1.55-0.48
		c-0.39-0.06-0.91-0.22-1.55-0.49v-1.36c0-2.33-0.07-4.34-0.2-6.02c-0.13-1.68-0.77-3.04-1.94-4.08c-1.16-1.03-3.08-1.78-5.73-2.23
		c-2.65-0.45-6.5-0.68-11.55-0.68h-22.32v59.98v2.14v5.43c0.13,2.46,1,4.24,2.62,5.34c1.62,1.1,5.21,1.65,10.77,1.65h25.62
		c5.17,0,9.15-0.22,11.94-0.68c2.78-0.45,4.78-1.2,6.02-2.23c1.23-1.03,2-2.36,2.33-3.98
		C1806.99,740.84,1807.34,738.8,1807.73,736.34z"/>
	<path class="st0" d="M1930.61,618.71c4.92,5.57,8.38,9.61,10.39,12.13c2.01,2.52,2.94,3.98,2.82,4.37c0.65-1.68,0.9-2.55,0.77-2.62
		c-0.13-0.06,0.26-0.29,1.17-0.68c0.39-0.13,0.65-0.19,0.78-0.19h0.19v12.42v11.84c-0.26,0-0.62-0.06-1.07-0.19
		c-0.45-0.13-0.75-0.19-0.87-0.19l-0.2-0.58c-0.26-0.51-0.52-1.1-0.77-1.75c-3.49-8.15-7.22-15.63-11.16-22.42
		c-3.95-6.79-7.73-11.81-11.35-15.04c-3.11-2.59-6.67-4.47-10.68-5.63c-4.01-1.16-9.12-1.75-15.34-1.75
		c-8.8,0-16.24,1.26-22.32,3.79c-6.08,2.52-11.03,6.6-14.85,12.23c-3.82,5.63-6.57,12.98-8.25,22.03
		c-1.68,9.06-2.52,20.12-2.52,33.19c0,12.69,0.84,23.39,2.52,32.13c1.68,8.74,4.46,15.82,8.35,21.25c3.88,5.43,8.9,9.39,15.04,11.84
		c6.14,2.46,13.68,3.69,22.61,3.69c11.77,0,20.06-1.26,24.85-3.79c4.79-2.52,7.18-6.82,7.18-12.91l0.2,15.14l-0.39-43.29
		c0-2.98-0.16-5.27-0.49-6.89c-0.32-1.62-0.84-2.78-1.55-3.49c-0.71-0.71-1.62-1.1-2.72-1.17c-1.1-0.06-2.49-0.1-4.17-0.1h-1.36
		c0-0.65-0.07-1.17-0.19-1.55c-0.13-0.39-0.26-0.84-0.39-1.36h35.52c0,0.52-0.07,0.97-0.19,1.36c-0.13,0.39-0.26,0.91-0.39,1.55
		h-1.36c-1.3,0-2.43,0.03-3.4,0.1c-0.97,0.07-1.75,0.46-2.33,1.17c-0.58,0.71-1,1.88-1.26,3.49c-0.26,1.62-0.39,3.92-0.39,6.89
		v39.79c2.2-0.78,4.43-1.65,6.7-2.62c2.26-0.97,4.69-2.1,7.28-3.4l0.39,0.78c-2.72,1.3-5.24,2.46-7.57,3.49
		c-2.33,1.04-4.59,2.01-6.79,2.91v0.77l-5.24,1.17c-2.85,1.04-5.76,1.91-8.74,2.62c-2.98,0.71-6.15,1.29-9.51,1.75
		c-3.37,0.45-7.09,0.78-11.16,0.97c-4.08,0.2-8.71,0.29-13.88,0.29c-11.78,0-21.74-1.3-29.89-3.88c-8.15-2.59-14.75-6.73-19.8-12.42
		c-5.05-5.69-8.71-13.17-10.97-22.42c-2.27-9.25-3.4-20.54-3.4-33.88c0-13.33,1.13-24.62,3.4-33.87
		c2.26-9.25,5.95-16.72,11.06-22.42c5.11-5.69,11.78-9.83,19.99-12.42c8.22-2.59,18.21-3.88,29.99-3.88
		c9.45,0,16.79,0.87,22.03,2.62c5.24,1.75,9.74,4.69,13.49,8.83L1930.61,618.71z"/>
	<path class="st0" d="M2063.58,736.34c0.13,0,0.65-0.13,1.55-0.39c0.39-0.13,0.84-0.26,1.36-0.39c-0.26,2.46-0.55,4.92-0.87,7.38
		c-0.32,2.46-0.68,4.92-1.07,7.38h-22.52h-38.82h-15.33h-11.45c0-0.65,0.06-1.16,0.19-1.55c0.13-0.39,0.26-0.84,0.39-1.36h1.36
		c1.81,0,3.3-0.03,4.46-0.1c1.16-0.06,2.13-0.49,2.91-1.26c0.78-0.78,1.33-2.04,1.65-3.79c0.32-1.75,0.49-4.24,0.49-7.47V624.73
		c0-3.23-0.16-5.73-0.49-7.47c-0.32-1.75-0.87-3.01-1.65-3.79c-0.78-0.78-1.75-1.2-2.91-1.26c-1.17-0.06-2.66-0.1-4.46-0.1H1977
		l-0.58-3.1h11.45h15.33h33.97h22.52c0.13,1.42,0.22,2.65,0.29,3.69c0.06,1.04,0.1,2.27,0.1,3.69c0.26,1.43,0.39,2.65,0.39,3.69
		c0,1.04,0.06,2.27,0.2,3.69c-0.13,0-0.58-0.1-1.36-0.29c-0.78-0.19-1.36-0.36-1.75-0.49v-1.36c-0.13-2.07-0.13-3.85,0-5.34
		c0.13-1.49-0.32-2.69-1.36-3.59c-1.04-0.9-2.95-1.55-5.73-1.94c-2.78-0.39-7.15-0.58-13.1-0.58h-34.16v14.56v48.92h22.32
		c5.05,0,8.9-0.22,11.55-0.68c2.65-0.45,4.56-1.2,5.73-2.23c1.17-1.03,1.81-2.39,1.94-4.08c0.13-1.68,0.2-3.75,0.2-6.21v-1.36
		c0.13-0.13,0.58-0.26,1.36-0.39c0.78-0.13,1.36-0.26,1.75-0.39v15.34v1.16v15.33c-0.65-0.26-1.16-0.42-1.55-0.48
		c-0.39-0.06-0.91-0.22-1.55-0.49v-1.36c0-2.33-0.07-4.34-0.2-6.02c-0.13-1.68-0.77-3.04-1.94-4.08c-1.16-1.03-3.08-1.78-5.73-2.23
		c-2.65-0.45-6.5-0.68-11.55-0.68h-22.32v59.98v2.14v5.43c0.13,2.46,1,4.24,2.62,5.34c1.62,1.1,5.21,1.65,10.77,1.65h25.63
		c5.17,0,9.15-0.22,11.94-0.68c2.78-0.45,4.78-1.2,6.02-2.23c1.23-1.03,2-2.36,2.33-3.98
		C2062.83,740.84,2063.19,738.8,2063.58,736.34z"/>
</g>
<line class="st3" x1="158.42" y1="559.5" x2="2062.62" y2="559.5"/>
</svg>
